<?xml version="1.0" encoding="UTF-8" standalone="no"?>
<!-- Created with Inkscape (http://www.inkscape.org/) -->

<svg
   xmlns:dc="http://purl.org/dc/elements/1.1/"
   xmlns:cc="http://creativecommons.org/ns#"
   xmlns:rdf="http://www.w3.org/1999/02/22-rdf-syntax-ns#"
   xmlns:svg="http://www.w3.org/2000/svg"
   xmlns="http://www.w3.org/2000/svg"
   xmlns:sodipodi="http://sodipodi.sourceforge.net/DTD/sodipodi-0.dtd"
   xmlns:inkscape="http://www.inkscape.org/namespaces/inkscape"
   version="1.1"
   id="svg869"
   width="122.58184"
   height="124.22202"
   viewBox="0 0 122.58184 124.22202"
   sodipodi:docname="logo.svg"
   inkscape:version="0.92.4 5da689c313, 2019-01-14">
  <metadata
     id="metadata875">
    <rdf:RDF>
      <cc:Work
         rdf:about="">
        <dc:format>image/svg+xml</dc:format>
        <dc:type
           rdf:resource="http://purl.org/dc/dcmitype/StillImage" />
        <dc:title></dc:title>
      </cc:Work>
    </rdf:RDF>
  </metadata>
  <defs
     id="defs873">
    <clipPath
       id="a"
       transform="translate(-23.48 -15.35)">
      <rect
         class="a"
         x="-12"
         y="-12"
         width="104"
         height="104"
         id="rect982" />
    </clipPath>
  </defs>
  <sodipodi:namedview
     pagecolor="#ffffff"
     bordercolor="#666666"
     borderopacity="1"
     objecttolerance="10"
     gridtolerance="10"
     guidetolerance="10"
     inkscape:pageopacity="0"
     inkscape:pageshadow="2"
     inkscape:window-width="1920"
     inkscape:window-height="1042"
     id="namedview871"
     showgrid="false"
     fit-margin-top="0"
     fit-margin-left="0"
     fit-margin-right="0"
     fit-margin-bottom="0"
     inkscape:zoom="0.55612343"
     inkscape:cx="474.93124"
     inkscape:cy="142.97345"
     inkscape:window-x="0"
     inkscape:window-y="38"
     inkscape:window-maximized="0"
     inkscape:current-layer="g1570" />
  <g
     id="g879"
     transform="translate(-1512.8426,-386.42803)">
    <g
       id="g1570">
      <g
         id="g916"
         transform="matrix(0.19903833,0,0,0.19903833,1211.7289,409.01112)">
        <path
           style="fill:#84c253"
           d="m 1781.3385,509.7166 c -81.2372,-5.6905 -149.4582,-26.46094 -195.7377,-59.59396 -64.053,-45.85762 -84.307,-112.43003 -52.7085,-173.24639 62.9544,13.61382 -31.9593,-19.86543 18.1169,103.36575 4.8821,9.2906 23.3372,2.19455 28.0834,0.71711 2.0603,-0.64134 14.5459,-4.10869 27.7459,-7.70524 13.2,-3.59654 29.625,-8.09996 36.5,-10.00758 6.875,-1.90763 14.975,-4.12715 18,-4.93227 8.0882,-2.1527 52.1367,-14.23639 62,-17.00824 11.4131,-3.20737 63.8307,-17.55716 82,-22.44824 3.575,-0.96237 9.3135,-2.56631 12.7522,-3.56431 3.4386,-0.998 6.4901,-1.57655 6.781,-1.28566 0.2909,0.2909 -1.5465,6.32744 -4.0831,13.41454 -2.5366,7.08711 -5.8896,16.48565 -7.4512,20.88565 -1.5616,4.4 -5.0743,14.3 -7.8061,22 -2.7319,7.7 -6.8454,18.95 -9.1412,25 -2.2958,6.05 -4.7912,13.025 -5.5453,15.5 -0.7541,2.475 -4.3609,12.6 -8.015,22.5 -11.2188,30.39447 -21.547,59.46105 -19.9451,60.45104 1.4655,0.90576 9.1887,16.37834 20.2932,5.78855 0,0 -3.795,20.66456 4.3591,-9.37991 z"
           id="path887"
           inkscape:connector-curvature="0"
           sodipodi:nodetypes="cscccscccsccsscssccccc" />
        <path
           style="fill:#020202;stroke-width:0.99998927"
           d="m 1777.3385,509.71662 c -126.6677,-8.63158 -217.9984,-52.36065 -251.4524,-120.39522 -8.9789,-18.2603 -13.0513,-34.926 -13.0435,-53.37985 0.027,-63.39074 50.1047,-120.06138 135.9959,-153.8988 19.9174,-7.84659 61.8465,-20.21648 68.5259,-20.21648 1.5907,0 2.7472,1.31645 4.5532,5.18273 1.3315,2.8505 5.2161,10.34638 8.6324,16.6575 3.4163,6.31111 6.022,11.78124 5.7905,12.15585 -0.2315,0.3746 -5.1751,1.7244 -10.9857,2.99956 -14.5983,3.20365 -14.5175,3.11312 -10.0426,11.25402 4.9822,9.06389 4.6967,12.89324 -1.3014,17.45646 -3.3221,2.52734 -5.3148,3.29241 -8.5757,3.29241 -5.1687,0 -6.5406,-1.3394 -13.0588,-12.74973 -2.7108,-4.74531 -5.3698,-8.24982 -6.2593,-8.24982 -2.2419,0 -19.9479,6.47536 -33.2785,12.17046 -18.1548,7.75612 -41.4427,20.97885 -40.7411,23.1326 0.2143,0.65788 3.4908,3.10944 7.2812,5.44792 6.8134,4.20356 9.3556,7.04867 9.4245,10.54758 0.049,2.47485 -2.6738,7.64541 -5.7658,10.9501 -4.1498,4.43523 -7.766,3.78125 -20.7355,-3.74992 -6.1565,-3.57492 -11.8803,-6.49986 -12.7196,-6.49986 -2.1776,0 -16.672,15.61866 -22.1724,23.89234 -4.9681,7.47293 -10.5862,18.96271 -12.6061,25.78153 -2.208,7.45351 -2.5606,7.32491 20.0804,7.32491 h 20.1083 l 2.9231,2.92302 c 2.4705,2.47047 2.923,3.71669 2.923,8.04948 0,5.59163 -1.909,10.30291 -4.713,11.63119 -0.9828,0.46558 -11.237,1.0826 -22.787,1.37115 l -21,0.52464 -0.3149,2.73439 c -0.4794,4.16261 3.4844,17.34716 7.8207,26.01367 6.4401,12.87105 28.8878,38.77278 32.4258,37.41515 0.7576,-0.29072 6.933,-3.76483 13.723,-7.72026 14.4164,-8.39809 18.0682,-9.31031 22.4642,-5.61147 4.1698,3.50863 6.7967,9.63878 5.9849,13.96624 -0.7681,4.09424 -1.9003,5.14975 -11.4119,10.63909 -5.026,2.90053 -7.2101,4.72779 -6.9938,5.851 0.9742,5.05816 65.4882,31.3749 69.2535,28.25005 0.6652,-0.55199 3.9543,-5.66917 7.3093,-11.37152 8.1162,-13.79493 11.5636,-15.27615 21.2793,-9.14299 7.2649,4.58602 7.6124,9.34644 1.4257,19.53059 -2.0091,3.30734 -3.4203,6.61953 -3.136,7.36044 0.6285,1.63778 11.4925,3.7029 37.1702,7.06561 20.1054,2.63295 55.2935,5.19418 57.8555,4.21109 1.2741,-0.4889 1.5729,-3.70482 1.8334,-19.72723 l 0.3111,-19.1431 2.8058,-2.41129 c 4.0362,-3.46871 13.3521,-3.46882 17.3885,-2.1e-4 l 2.8057,2.4111 0.5,19.33844 0.5,19.33844 12,-0.19044 c 6.6,-0.10475 18.75,-0.708 27,-1.34055 15.3469,-1.17668 46.705,-5.35946 48.501,-6.46942 1.6854,-1.04162 1.142,-3.17041 -2.501,-9.79783 -5.4445,-9.90483 -4.4236,-14.14856 4.4984,-18.70012 8.1897,-4.17799 10.7509,-2.61489 18.8528,11.50568 4.2017,7.32315 6.3246,10.07853 7.9457,10.31314 5.4771,0.79262 39.471,-10.9548 58.8072,-20.32222 13.0786,-6.33597 16.8993,-8.8738 15.869,-10.54079 -0.2999,-0.48524 -4.7924,-3.38179 -9.9834,-6.43677 -9.7523,-5.73942 -11.4897,-7.55297 -11.4897,-11.99341 0,-3.43897 3.4035,-9.99442 6.2092,-11.95956 4.4288,-3.102 8.1064,-2.01329 23.8284,7.05399 l 14.9465,8.62003 2.7579,-1.75891 c 5.1046,-3.25548 19.2434,-18.64957 24.6594,-26.84857 8.352,-12.64388 15.2139,-30.5036 14.4044,-37.49133 l -0.3058,-2.64015 -22.177,-0.26894 -22.1771,-0.26892 -2.5729,-3.05773 c -2.0801,-2.47196 -2.573,-4.10922 -2.573,-8.54662 0,-11.38276 2.245,-12.35727 28.4679,-12.35727 h 19.5321 v -2.3434 c 0,-6.17201 -8.4517,-24.17817 -16.2667,-34.65581 -5.5586,-7.45251 -17.7524,-19.99957 -19.4365,-19.99957 -0.7509,0 -6.4595,2.92494 -12.6857,6.49986 -13.6448,7.83454 -16.8289,8.29363 -21.4016,3.08571 -1.6488,-1.87779 -3.5261,-5.01495 -4.1718,-6.97145 -1.7272,-5.23348 0.1721,-8.26169 8.7136,-13.89278 3.9868,-2.62833 7.2487,-5.21013 7.2487,-5.73732 0,-2.10723 -24.6877,-15.84347 -41,-22.81244 -13.3306,-5.6951 -31.0365,-12.17046 -33.2784,-12.17046 -0.8896,0 -3.5485,3.50451 -6.2593,8.24982 -6.5183,11.41033 -7.8901,12.74973 -13.0588,12.74973 -3.2609,0 -5.2536,-0.76507 -8.5757,-3.29241 -6.0166,-4.57724 -6.2912,-8.39824 -1.2513,-17.41024 4.5438,-8.12493 4.5846,-8.07924 -10.0928,-11.30024 -5.8106,-1.27516 -10.7519,-2.62133 -10.9806,-2.99148 -0.2288,-0.37016 2.9294,-6.93006 7.0181,-14.57757 4.0888,-7.64752 7.9488,-15.14703 8.5778,-16.66558 1.3871,-3.34876 2.6144,-3.41215 13.901,-0.71807 51.8235,12.37009 101.0738,34.67074 133.5,60.44908 81.3614,64.68119 80.3777,161.27511 -2.2689,222.78144 -48.5002,36.09429 -116.0287,56.84296 -204.0606,62.69927 -17.6113,1.17158 -66.9734,1.12356 -84.6705,-0.0824 z"
           id="path881"
           inkscape:connector-curvature="0" />
        <g
           class="b"
           clip-path="url(#a)"
           id="g991"
           transform="matrix(7.2113887,0,0,8.5105303,1688.2796,-113.461)"
           style="fill:#fbb927;fill-opacity:1">
          <path
             inkscape:connector-curvature="0"
             class="c"
             d="m 60.71,34.36 a 26.28,26.28 0 0 1 -3,11.2 A 190.43,190.43 0 0 1 42.3,65.8 c 0,0 -9.88,-9.35 -16.2,-20.42 A 26.18,26.18 0 0 1 23.48,34.6 c 0,-10.3 8.33,-19.25 18.62,-19.25 10.29,0 18.61,8.72 18.61,19 m -8.85,-1 A 9.6,9.6 0 1 0 42.27,43 9.59,9.59 0 0 0 51.86,33.41"
             transform="translate(-23.48,-15.35)"
             id="path989"
             style="fill:#fbb927;fill-opacity:1" />
        </g>
      </g>
    </g>
  </g>
</svg>
