<?xml version="1.0" encoding="UTF-8" standalone="no"?>
<!-- Created with Inkscape (http://www.inkscape.org/) -->

<svg
   xmlns:dc="http://purl.org/dc/elements/1.1/"
   xmlns:cc="http://creativecommons.org/ns#"
   xmlns:rdf="http://www.w3.org/1999/02/22-rdf-syntax-ns#"
   xmlns:svg="http://www.w3.org/2000/svg"
   xmlns="http://www.w3.org/2000/svg"
   xmlns:sodipodi="http://sodipodi.sourceforge.net/DTD/sodipodi-0.dtd"
   xmlns:inkscape="http://www.inkscape.org/namespaces/inkscape"
   width="256"
   height="256"
   id="svg2"
   version="1.1"
   inkscape:version="0.48.2 r9819"
   sodipodi:docname="mirbot.svg">
  <defs
     id="defs4" />
  <sodipodi:namedview
     id="base"
     pagecolor="#ffffff"
     bordercolor="#666666"
     borderopacity="1.0"
     inkscape:pageopacity="0.0"
     inkscape:pageshadow="2"
     inkscape:zoom="1.7495881"
     inkscape:cx="148.4173"
     inkscape:cy="134.77777"
     inkscape:document-units="px"
     inkscape:current-layer="layer1"
     showgrid="false"
     inkscape:window-width="1440"
     inkscape:window-height="792"
     inkscape:window-x="0"
     inkscape:window-y="0"
     inkscape:window-maximized="1" />
  <metadata
     id="metadata7">
    <rdf:RDF>
      <cc:Work
         rdf:about="">
        <dc:format>image/svg+xml</dc:format>
        <dc:type
           rdf:resource="http://purl.org/dc/dcmitype/StillImage" />
        <dc:title></dc:title>
      </cc:Work>
    </rdf:RDF>
  </metadata>
  <g
     inkscape:label="Layer 1"
     inkscape:groupmode="layer"
     id="layer1"
     transform="translate(0,-796.36218)">
    <path
       sodipodi:type="arc"
       style="fill:#ff0000;fill-opacity:1"
       id="path2985-6"
       sodipodi:cx="99.285713"
       sodipodi:cy="142.42857"
       sodipodi:rx="99.285713"
       sodipodi:ry="90"
       d="m 198.57143,142.42857 a 99.285713,90 0 1 1 -198.57143,0 99.285713,90 0 1 1 198.57143,0 z"
       transform="matrix(1.2892086,0,0,1.4222222,835.68553,721.50774)" />
    <path
       style="fill:none;stroke:#000000;stroke-width:0.99583215px;stroke-linecap:butt;stroke-linejoin:miter;stroke-opacity:1"
       d="M 836.18345,1115.575 1091.1876,860.57075"
       id="path2991-7"
       inkscape:connector-curvature="0" />
    <path
       style="fill:none;stroke:#000000;stroke-width:0.99583215px;stroke-linecap:butt;stroke-linejoin:miter;stroke-opacity:1"
       d="M 836.18345,987.57495 1091.1876,732.5707"
       id="path2991-8-8"
       inkscape:connector-curvature="0" />
    <path
       style="fill:none;stroke:#000000;stroke-width:0.99445051px;stroke-linecap:butt;stroke-linejoin:miter;stroke-opacity:1"
       d="M 836.18275,796.57005 1091.1883,1051.5757"
       id="path3011-4"
       inkscape:connector-curvature="0" />
    <path
       style="fill:none;stroke:#000000;stroke-width:1px;stroke-linecap:butt;stroke-linejoin:miter;stroke-opacity:1"
       d="m 899.68553,1052.0729 96,-96.00005 -64,-64 95.99997,-96"
       id="path3015-1"
       inkscape:connector-curvature="0"
       sodipodi:nodetypes="cccc" />
    <path
       style="fill:#dddd6e;fill-opacity:1"
       d="M 128 0 C 57.307555 0 0 57.30755 0 128 C 0 176.90215 27.442781 219.3851 67.75 240.9375 L 149.1875 159.5 L 90.84375 101.15625 L 85.1875 95.5 L 90.84375 89.84375 L 172.65625 8.03125 C 158.74931 2.85199 143.71143 0 128 0 z M 72.5625 128 L 96 151.4375 L 87.4375 183.4375 L 55.4375 192 L 32 168.5625 L 40.5625 136.5625 L 72.5625 128 z "
       transform="translate(0,796.36218)"
       id="path4007" />
    <path
       style="fill:#83868e;fill-opacity:1"
       d="M 188.25 15.0625 L 107.8125 95.5 L 166.15625 153.84375 L 171.8125 159.5 L 166.15625 165.15625 L 83.34375 247.96875 C 97.250693 253.14805 112.28857 256 128 256 C 198.69245 256 256 198.69245 256 128 C 256 79.09785 228.55722 36.61485 188.25 15.0625 z M 200.5625 60 L 224 83.4375 L 215.4375 115.4375 L 183.4375 124 L 160 100.5625 L 168.5625 68.5625 L 200.5625 60 z "
       transform="translate(0,796.36218)"
       id="path4005" />
    <path
       sodipodi:type="arc"
       style="fill:#ff0000;fill-opacity:1"
       id="path2985-6-2-8"
       sodipodi:cx="99.285713"
       sodipodi:cy="142.42857"
       sodipodi:rx="99.285713"
       sodipodi:ry="90"
       d="m 198.57143,142.42857 a 99.285713,90 0 1 1 -198.57143,0 99.285713,90 0 1 1 198.57143,0 z"
       transform="matrix(1.2892086,0,0,1.4222222,843.08572,1041.1992)" />
    <path
       style="fill:none;stroke:#000000;stroke-width:16;stroke-linecap:butt;stroke-linejoin:miter;stroke-miterlimit:4;stroke-opacity:1;stroke-dasharray:none"
       d="m 907.58572,1371.2643 95.99998,-96.0001 -63.99998,-64 95.99998,-96"
       id="path3015-1-0-6"
       inkscape:connector-curvature="0"
       sodipodi:nodetypes="cccc" />
    <path
       sodipodi:type="star"
       style="fill:#000000;fill-opacity:1;stroke-width:16;stroke-miterlimit:4;stroke-dasharray:none"
       id="path3900-6"
       sodipodi:sides="6"
       sodipodi:cx="-137.17514"
       sodipodi:cy="122.25423"
       sodipodi:r1="25.516308"
       sodipodi:r2="22.097771"
       sodipodi:arg1="0.26179939"
       sodipodi:arg2="0.78539816"
       inkscape:flatsided="true"
       inkscape:rounded="0"
       inkscape:randomized="0"
       d="m -112.52828,128.85833 -18.04275,18.04276 -24.64686,-6.60411 -6.60411,-24.64686 18.04275,-18.042754 24.64686,6.604104 z"
       transform="matrix(1.1243952,0.6491699,-0.6491699,1.1243952,1140.6885,1227.3522)" />
    <path
       sodipodi:type="star"
       style="fill:#000000;fill-opacity:1;stroke-width:16;stroke-miterlimit:4;stroke-dasharray:none"
       id="path3900-5-2"
       sodipodi:sides="6"
       sodipodi:cx="-137.17514"
       sodipodi:cy="122.25423"
       sodipodi:r1="25.516308"
       sodipodi:r2="22.097771"
       sodipodi:arg1="0.26179939"
       sodipodi:arg2="0.78539816"
       inkscape:flatsided="true"
       inkscape:rounded="0"
       inkscape:randomized="0"
       d="m -112.52828,128.85833 -18.04275,18.04276 -24.64686,-6.60411 -6.60411,-24.64686 18.04275,-18.042754 24.64686,6.604104 z"
       transform="matrix(1.1243952,0.6491699,-0.6491699,1.1243952,1268.6885,1159.3522)" />
  </g>
</svg>
