<?xml version="1.0" encoding="UTF-8" standalone="no"?>
<svg
   xmlns:dc="http://purl.org/dc/elements/1.1/"
   xmlns:cc="http://creativecommons.org/ns#"
   xmlns:rdf="http://www.w3.org/1999/02/22-rdf-syntax-ns#"
   xmlns:svg="http://www.w3.org/2000/svg"
   xmlns="http://www.w3.org/2000/svg"
   xmlns:sodipodi="http://sodipodi.sourceforge.net/DTD/sodipodi-0.dtd"
   xmlns:inkscape="http://www.inkscape.org/namespaces/inkscape"
   id="svg8"
   version="1.1"
   viewBox="0 0 39.272232 42.746418"
   height="42.746418mm"
   width="39.272232mm"
   sodipodi:docname="logo.svg"
   inkscape:version="0.92.4 5da689c313, 2019-01-14">
  <sodipodi:namedview
     pagecolor="#ffffff"
     bordercolor="#666666"
     borderopacity="1"
     objecttolerance="10"
     gridtolerance="10"
     guidetolerance="10"
     inkscape:pageopacity="0"
     inkscape:pageshadow="2"
     inkscape:window-width="636"
     inkscape:window-height="1038"
     id="namedview32"
     showgrid="false"
     fit-margin-top="-2.7755576e-17"
     fit-margin-left="0"
     fit-margin-right="0"
     fit-margin-bottom="0"
     inkscape:zoom="0.31389174"
     inkscape:cx="90.103698"
     inkscape:cy="1.4077592"
     inkscape:window-x="1280"
     inkscape:window-y="38"
     inkscape:window-maximized="0"
     inkscape:current-layer="layer1" />
  <defs
     id="defs2" />
  <metadata
     id="metadata5">
    <rdf:RDF>
      <cc:Work
         rdf:about="">
        <dc:format>image/svg+xml</dc:format>
        <dc:type
           rdf:resource="http://purl.org/dc/dcmitype/StillImage" />
        <dc:title></dc:title>
      </cc:Work>
    </rdf:RDF>
  </metadata>
  <g
     transform="matrix(0.42905083,0,0,0.42905083,-18.759162,-24.185688)"
     id="layer1">
    <path
       id="path3738-3"
       d="m 43.735505,56.536714 c 0.118989,40.770047 -0.06108,63.806416 0,99.355706 77.552965,0.16078 46.472185,0.12616 91.452985,0 l 0.0668,-3.0736 c -37.46067,0.005 -49.929522,-0.32125 -88.379386,0 -0.132387,-35.19363 0.255463,-61.089126 0,-96.282106 z"
       style="fill:#000000;fill-opacity:0.47179488;stroke-width:0.26458332"
       inkscape:connector-curvature="0" />
    <path
       id="path3724"
       d="m 52.145588,153.46941 c -2.030019,-3.01149 0.779051,-10.08067 0.745064,-14.68651 -0.370684,-3.59087 2.3673,-8.99958 3.529884,-3.10977 1.223732,5.43375 1.916006,-7.48087 2.871305,-9.99564 0.848016,-3.03538 1.232575,-13.25193 4.278253,-8.37858 0.314221,2.77609 0.789494,8.11652 1.302914,2.24817 1.023363,-6.69149 1.655154,-13.53566 2.82279,-20.161483 3.678508,-3.431339 3.001196,7.320713 4.013669,10.489973 0.579525,-3.00516 3.488905,-9.933183 4.622281,-3.27756 0.972097,3.81329 1.597953,10.58478 2.668392,12.85363 1.569831,-4.11054 0.113249,-13.93636 3.946581,-14.34605 1.572799,1.7144 1.656456,11.33567 2.479172,4.46841 1.298553,-7.96423 2.185963,-16.082428 3.690717,-23.966866 3.014937,-6.53545 3.051599,10.631344 3.823386,1.985843 1.067063,-6.121668 1.538921,-12.506689 2.985755,-18.45975 3.716646,-3.915981 2.927886,14.069574 4.213609,4.284402 0.96436,-5.57068 1.3794,-11.388194 2.72029,-16.793117 3.97186,-2.028269 2.1611,8.636979 2.99547,12.121163 0.3963,6.641913 0.73858,13.293261 1.2347,19.920645 -0.37305,-3.720779 2.70979,-9.577436 3.51871,-3.360216 0.77242,6.602155 1.21471,13.28456 2.06356,19.866586 -0.0661,-3.43671 3.0392,-10.560385 3.91602,-3.90505 0.57225,5.48183 0.87248,11.02142 1.50584,16.48859 0.66269,-6.48788 1.97637,-12.74194 3.65772,-18.814053 0.26639,-3.659599 2.31399,-8.451621 4.00735,-3.828119 -1.92279,7.700022 -4.29473,15.274162 -4.75728,23.562362 -1.12258,5.62022 -0.2949,13.03252 -2.76816,17.51983 -3.40567,-2.29017 -1.69503,-10.9165 -2.85738,-15.75869 -0.36402,-2.80886 -0.44604,-13.10379 -1.60211,-5.23798 -1.52227,6.40778 -3.94765,-0.39116 -3.51206,-4.06897 -0.50853,-3.28002 -0.65887,-10.85731 -1.43022,-11.519253 0.10798,3.054893 -1.63447,13.014063 -3.54661,6.597293 -0.98679,-10.876702 -1.18207,-22.279114 -2.16584,-32.911776 -1.38163,4.940063 -0.57687,12.31825 -3.280173,15.751629 -2.729878,0.39104 -2.324605,-14.02552 -3.450682,-5.056892 -1.084786,6.630125 -1.660579,13.48783 -3.159798,19.941809 -3.364856,3.96035 -2.551987,-11.574001 -3.646584,-2.416 -1.23273,7.29443 -1.921761,14.87194 -3.504791,21.98465 -3.381048,3.66238 -3.105793,-12.31463 -4.175879,-3.63741 -0.92926,3.05957 -0.53129,14.20051 -3.956147,10.44952 -1.471523,-5.77926 -2.162439,-11.93965 -3.619959,-17.72744 -0.686745,2.94992 -3.414333,10.66057 -4.646554,3.94682 -0.249253,-2.48557 -0.884067,-7.16363 -1.209005,-1.78107 -1.133923,7.31769 -1.684842,14.86978 -3.214314,22.03016 -3.701788,4.27668 -2.525476,-14.35601 -4.122007,-4.82504 -1.203761,5.28792 -1.547616,11.30818 -3.32016,16.11311 -2.449939,1.6255 -2.699704,-7.33731 -3.163351,-0.35582 -0.596376,2.11432 0.155467,7.5792 -2.504368,5.75451 z"
       style="fill:#b373f5;fill-opacity:1;stroke-width:0.25886843;stroke-miterlimit:4;stroke-dasharray:none"
       inkscape:connector-curvature="0" />
  </g>
</svg>
