<?xml version="1.0" encoding="UTF-8" standalone="no"?>
<svg
   xmlns:dc="http://purl.org/dc/elements/1.1/"
   xmlns:cc="http://creativecommons.org/ns#"
   xmlns:rdf="http://www.w3.org/1999/02/22-rdf-syntax-ns#"
   xmlns:svg="http://www.w3.org/2000/svg"
   xmlns="http://www.w3.org/2000/svg"
   xmlns:sodipodi="http://sodipodi.sourceforge.net/DTD/sodipodi-0.dtd"
   xmlns:inkscape="http://www.inkscape.org/namespaces/inkscape"
   width="48"
   height="48"
   version="1.1"
   viewBox="0 0 48 48.000001"
   id="svg38"
   sodipodi:docname="hsp_.svg"
   inkscape:version="0.92.4 5da689c313, 2019-01-14">
  <metadata
     id="metadata44">
    <rdf:RDF>
      <cc:Work
         rdf:about="">
        <dc:format>image/svg+xml</dc:format>
        <dc:type
           rdf:resource="http://purl.org/dc/dcmitype/StillImage" />
        <dc:title></dc:title>
      </cc:Work>
    </rdf:RDF>
  </metadata>
  <defs
     id="defs42" />
  <sodipodi:namedview
     pagecolor="#ffffff"
     bordercolor="#666666"
     borderopacity="1"
     objecttolerance="10"
     gridtolerance="10"
     guidetolerance="10"
     inkscape:pageopacity="0"
     inkscape:pageshadow="2"
     inkscape:window-width="1360"
     inkscape:window-height="716"
     id="namedview40"
     showgrid="false"
     inkscape:zoom="4.5905223"
     inkscape:cx="15.922241"
     inkscape:cy="43.672436"
     inkscape:window-x="0"
     inkscape:window-y="31"
     inkscape:window-maximized="1"
     inkscape:current-layer="svg38" />
  <path
     d="M 18.122487,4.2080738 V 19.647891 L 8.4667042,32.214239 c -1.5904713,2.069669 -2.0597285,5.02609 -1.4130783,7.62162 0.03563,0.142177 0.072019,0.283522 0.1144715,0.423286 0.03184,0.105654 0.065195,0.211309 0.1008258,0.315217 0.011371,0.0341 0.023501,0.06905 0.034872,0.103325 0.040937,0.114557 0.081874,0.226783 0.127359,0.338761 1.2159751,3.105918 4.0322768,5.333238 7.3648358,5.528408 l 0.0046,0.0083 h 0.03487 c 0.144795,0.0083 0.292622,0.0083 0.438933,0.0083 0.146311,0 0.289591,0 0.434386,-0.0083 h 4.82827 6.925905 4.828269 c 0.144796,0.0083 0.288075,0.0083 0.434386,0.0083 0.14631,0 0.294138,0 0.438933,-0.0083 h 0.03487 l 0.0046,-0.0083 c 3.33256,-0.19517 6.148861,-2.42249 7.364837,-5.528408 0.04548,-0.111978 0.08642,-0.224204 0.127359,-0.338761 0.01213,-0.0341 0.0235,-0.06905 0.03487,-0.103325 0.03563,-0.103908 0.06898,-0.209563 0.100824,-0.315217 0.04246,-0.139764 0.07884,-0.281109 0.114472,-0.423286 0.646651,-2.596445 0.177393,-5.551951 -1.413078,-7.62162 l -0.764414,-0.994818 -8.89139,-11.57153 V 15.284015 4.2080738 h -2.413803 -6.925904 -2.413756 z"
     id="path403"
     inkscape:connector-curvature="0"
     style="opacity:0.5;fill:#00cc00;stroke:none;stroke-width:2.90798783"
     sodipodi:nodetypes="cccccccccccsccccsccccccccccccccccc" />
  <path
     d="M 14.865024,1.5226619 H 33.134976 V 4.410731 H 14.865024 Z"
     id="path405"
     inkscape:connector-curvature="0"
     style="color:#000000;opacity:0.5;fill:#00cc00;stroke-width:0.78488207" />
  <path
     d="m 19.267558,29.55673 c -1.00264,0.138599 -1.992788,0.472368 -2.779062,1.081339 -1.116056,0.820114 -1.811373,2.000619 -2.542032,3.109911 -0.440972,0.737172 -0.864103,1.498302 -1.040637,2.333558 -0.294423,1.137161 -0.372931,2.316751 -0.297047,3.482448 0.254998,1.110956 1.205124,2.09521 2.422916,2.316169 1.178072,0.212392 2.386067,0.201493 3.580407,0.263389 3.763374,0.132775 7.528199,0.227449 11.292488,0.335016 1.134497,-0.07321 2.268994,-0.146336 3.403491,-0.219628 1.011642,-0.389924 1.881928,-1.216944 2.051311,-2.25103 0.175188,-0.819032 -0.08289,-1.641226 -0.218763,-2.44778 -0.668668,-1.328921 -1.738156,-2.464253 -3.015587,-3.316479 -2.419201,-1.02768 -4.990083,-1.68432 -7.489328,-2.514334 -1.289696,-0.431688 -2.459789,-1.111955 -3.698747,-1.64938 C 20.35974,29.861714 19.878512,29.4465 19.267558,29.55673 Z"
     id="path403-3"
     inkscape:connector-curvature="0"
     style="opacity:0.51988974;fill:#003399;stroke:none;stroke-width:2.82468653"
     sodipodi:nodetypes="cccccccccccsccccsccccccccccccccccc" />
</svg>
