<?xml version="1.0" encoding="UTF-8" standalone="no"?>
<svg
   xmlns:dc="http://purl.org/dc/elements/1.1/"
   xmlns:cc="http://creativecommons.org/ns#"
   xmlns:rdf="http://www.w3.org/1999/02/22-rdf-syntax-ns#"
   xmlns:svg="http://www.w3.org/2000/svg"
   xmlns="http://www.w3.org/2000/svg"
   xmlns:sodipodi="http://sodipodi.sourceforge.net/DTD/sodipodi-0.dtd"
   xmlns:inkscape="http://www.inkscape.org/namespaces/inkscape"
   width="48"
   height="48"
   version="1.1"
   viewBox="0 0 48 48.000001"
   id="svg38"
   sodipodi:docname="install.svg"
   inkscape:version="0.92.4 5da689c313, 2019-01-14">
  <metadata
     id="metadata44">
    <rdf:RDF>
      <cc:Work
         rdf:about="">
        <dc:format>image/svg+xml</dc:format>
        <dc:type
           rdf:resource="http://purl.org/dc/dcmitype/StillImage" />
      </cc:Work>
    </rdf:RDF>
  </metadata>
  <defs
     id="defs42" />
  <sodipodi:namedview
     pagecolor="#ffffff"
     bordercolor="#666666"
     borderopacity="1"
     objecttolerance="10"
     gridtolerance="10"
     guidetolerance="10"
     inkscape:pageopacity="0"
     inkscape:pageshadow="2"
     inkscape:window-width="1360"
     inkscape:window-height="716"
     id="namedview40"
     showgrid="false"
     inkscape:zoom="4.5905223"
     inkscape:cx="-55.17903"
     inkscape:cy="8.8180144"
     inkscape:window-x="0"
     inkscape:window-y="31"
     inkscape:window-maximized="1"
     inkscape:current-layer="g4788" />
  <path
     d="m1 43v0.25c0 2.216 1.784 4 4 4h38c2.216 0 4-1.784 4-4v-0.25c0 2.216-1.784 4-4 4h-38c-2.216 0-4-1.784-4-4zm0 0.5v0.5c0 2.216 1.784 4 4 4h38c2.216 0 4-1.784 4-4v-0.5c0 2.216-1.784 4-4 4h-38c-2.216 0-4-1.784-4-4z"
     style="opacity:.02"
     id="path2" />
  <path
     d="m1 43.25v0.25c0 2.216 1.784 4 4 4h38c2.216 0 4-1.784 4-4v-0.25c0 2.216-1.784 4-4 4h-38c-2.216 0-4-1.784-4-4z"
     style="opacity:.05"
     id="path4" />
  <path
     d="m1 43v0.25c0 2.216 1.784 4 4 4h38c2.216 0 4-1.784 4-4v-0.25c0 2.216-1.784 4-4 4h-38c-2.216 0-4-1.784-4-4z"
     style="opacity:.1"
     id="path6" />
  <path
     d="m24 1v22h23v-18c0-2.216-1.784-4-4-4h-19z"
     style="fill-rule:evenodd;fill:#86d0e3"
     id="path8" />
  <path
     d="m24 23v24h19c2.216 0 4-1.784 4-4v-20h-23z"
     style="fill-rule:evenodd;fill:#f4ba5f"
     id="path10" />
  <path
     d="m1 23v20c0 2.216 1.784 4 4 4h19v-24h-23z"
     style="fill-rule:evenodd;fill:#28a9c8"
     id="path12" />
  <g
     transform="translate(0,-1004.4)"
     id="g16">
    <path
       d="m 1,1043.4 v 4 c 0,2.216 1.784,4 4,4 h 38 c 2.216,0 4,-1.784 4,-4 v -4 c 0,2.216 -1.784,4 -4,4 H 5 c -2.216,0 -4,-1.784 -4,-4 z"
       style="opacity:0.1"
       id="path14"
       inkscape:connector-curvature="0" />
  </g>
  <path
     d="m5 1c-2.216 0-4 1.784-4 4v18h23v-22h-19z"
     style="fill-rule:evenodd;fill:#4cbed6"
     id="path18" />
  <g
     id="g4778"
     transform="matrix(0.52952504,0,0,0.44364123,19.584297,22.955108)"
     style="fill:#ffffff">
    <g
       id="g4788">
      <g
         id="g6277"
         style="fill:#f5f5f5"
         transform="translate(-7.2824971e-7,-1.772909)">
        <path
           sodipodi:nodetypes="cccccccccccsccccsccccccccccccccccc"
           style="opacity:1;fill:#f5f5f5;stroke:none;stroke-width:3.64173245"
           inkscape:connector-curvature="0"
           id="path403"
           d="M 1.40352,-22.232966 V -1.7124429 L -9.9903445,14.989193 c -1.8767635,2.750687 -2.4304895,6.679936 -1.6674395,10.129562 0.04205,0.189024 0.08498,0.376904 0.135077,0.562662 0.03757,0.14036 0.07693,0.280801 0.118975,0.418956 0.01342,0.04573 0.02773,0.09227 0.04115,0.137256 0.0483,0.152281 0.09661,0.301377 0.150284,0.45031 1.4348565,4.127908 4.7581044,7.088195 8.6905396,7.347603 l 0.0054,0.01143 h 0.041146 c 0.1708591,0.0098 0.3452966,0.01143 0.5179435,0.01143 0.1726478,0 0.3417181,0 0.5125771,-0.01143 h 5.69738 8.1725968 5.697379 c 0.17086,0.0098 0.33993,0.01143 0.512577,0.01143 0.172648,0 0.347085,0 0.517944,-0.01143 h 0.04115 l 0.0054,-0.01143 c 3.932436,-0.259408 7.255683,-3.219695 8.69054,-7.347603 0.05367,-0.148933 0.101979,-0.298029 0.150285,-0.45031 0.01431,-0.04573 0.02773,-0.09218 0.04115,-0.137256 0.04205,-0.138155 0.08141,-0.278596 0.118974,-0.418956 0.0501,-0.185758 0.09303,-0.373638 0.135077,-0.562662 0.763051,-3.45077 0.209325,-7.378875 -1.667439,-10.129562 L 25.76628,13.667005 15.2744,-1.7124429 V -7.5123266 -22.232966 H 12.42618 4.2535827 1.4053404 Z" />
        <path
           style="color:#000000;opacity:1;fill:#f5f5f5;stroke-width:0.98292375;stroke-opacity:1"
           inkscape:connector-curvature="0"
           id="path405"
           d="M -2.4403506,-25.802057 H 19.118272 v 3.838435 H -2.4403506 Z" />
      </g>
    </g>
  </g>
</svg>
